<svg xmlns="http://www.w3.org/2000/svg" viewBox="0 0 100 100">
  <defs>
    <linearGradient id="gold" x1="0%" y1="0%" x2="100%" y2="100%">
      <stop offset="0%" style="stop-color:#fbbf24"/>
      <stop offset="100%" style="stop-color:#d97706"/>
    </linearGradient>
  </defs>
  <rect width="100" height="100" rx="20" fill="#0a0a0a"/>
  <g transform="translate(25, 25) scale(2)">
    <path d="M12 3c-.5 0-1 .19-1.41.59L9 5.17 7.41 3.59A2 2 0 0 0 4.6 6.41L6.17 8l-1.58 1.59A2 2 0 1 0 7.41 12.41L9 10.83l1.59 1.58a2 2 0 1 0 2.82-2.82L11.83 8l1.58-1.59A2 2 0 0 0 12 3Z" fill="url(#gold)"/>
    <path d="M19.5 9.5L18 8l1.5-1.5a.7.7 0 0 0-1-1L17 7l-1.5-1.5a.7.7 0 0 0-1 1L16 8l-1.5 1.5a.7.7 0 0 0 1 1L17 9l1.5 1.5a.7.7 0 0 0 1-1Z" fill="url(#gold)" opacity="0.6"/>
  </g>
</svg>

